<svg xmlns="http://www.w3.org/2000/svg" width="1600" height="1000" viewBox="0 0 1600 1000" role="img" aria-labelledby="t d">
  <title id="t">Beanfreaks hero placeholder</title>
  <desc id="d">Abstract botanical shapes in warm cream and leaf greens</desc>
  <defs>
    <linearGradient id="bg" x1="0" y1="0" x2="1" y2="1">
      <stop offset="0" stop-color="#F6F2E7"/>
      <stop offset="1" stop-color="#EFE7D3"/>
    </linearGradient>
    <linearGradient id="leaf" x1="0" y1="0" x2="0" y2="1">
      <stop offset="0" stop-color="#3E7E5C"/>
      <stop offset="1" stop-color="#2F6A4F"/>
    </linearGradient>
    <linearGradient id="sun" x1="0" y1="0" x2="1" y2="1">
      <stop offset="0" stop-color="#CAA253" stop-opacity="0.9"/>
      <stop offset="1" stop-color="#CAA253" stop-opacity="0.2"/>
    </linearGradient>
    <filter id="soft" x="-20%" y="-20%" width="140%" height="140%">
      <feGaussianBlur stdDeviation="18"/>
    </filter>
  </defs>

  <rect width="1600" height="1000" fill="url(#bg)"/>
  <circle cx="1350" cy="220" r="220" fill="url(#sun)" filter="url(#soft)"/>
  <circle cx="260" cy="820" r="260" fill="#2F6A4F" opacity="0.10" filter="url(#soft)"/>

  <path d="M1030 240C860 240 710 380 660 540c-58 184 75 330 270 330 260 0 420-260 420-430 0-116-88-200-320-200z"
        fill="url(#leaf)" opacity="0.92"/>
  <path d="M720 840c210-140 390-340 520-600" stroke="#F6F2E7" stroke-opacity="0.55" stroke-width="10" fill="none"/>

  <path d="M470 260c-150 0-290 120-320 260-36 166 88 270 250 270 210 0 340-200 340-340 0-98-70-190-270-190z"
        fill="#3E7E5C" opacity="0.35"/>
  <path d="M220 760c170-110 320-270 420-470" stroke="#1D1C18" stroke-opacity="0.15" stroke-width="10" fill="none"/>

  <rect x="100" y="90" width="520" height="70" rx="22" fill="#FFFFFF" opacity="0.55"/>
  <text x="130" y="135" font-family="ui-sans-serif, system-ui, -apple-system, Segoe UI, Roboto" font-size="26" fill="#1D1C18" opacity="0.72">
    Placeholder image — swap later
  </text>
</svg>
